HIERARCHY
ROOT hip
{
	OFFSET 0.000000 0.000000 0.000000 
	CHANNELS 6 Xposition Yposition Zposition Xrotation Zrotation Yrotation
	JOINT abdomen
	{
		OFFSET 0.000000 3.402643 0.000000 
		CHANNELS 3 Xrotation Zrotation Yrotation
		JOINT chest
		{
			OFFSET 0.000000 8.438565 -0.680529 
			CHANNELS 3 Xrotation Zrotation Yrotation
			JOINT neck
			{
				OFFSET 0.000000 10.207942 -0.272212 
				CHANNELS 3 Xrotation Zrotation Yrotation
				JOINT head
				{
					OFFSET 0.000000 3.130431 0.000000 
					CHANNELS 3 Xrotation Zrotation Yrotation
					End Site
					{
						OFFSET 0.000000 3.130435 0.000000 
					}
				}
			}
			JOINT lCollar
			{
				OFFSET 3.470700 6.669187 -0.816635 
				CHANNELS 3 Yrotation Zrotation Xrotation
				JOINT lShldr
				{
					OFFSET 3.198488 0.000000 0.000000 
					CHANNELS 3 Zrotation Yrotation Xrotation
					JOINT lForeArm
					{
						OFFSET 10.139888 0.000000 0.000000 
						CHANNELS 3 Yrotation Zrotation Xrotation
						JOINT lHand
						{
							OFFSET 8.370511 0.000000 0.000000 
							CHANNELS 3 Zrotation Yrotation Xrotation
							End Site
							{
								OFFSET 4.083176 0.000000 0.000000 
							}
						}
					}
				}
			}
			JOINT rCollar
			{
				OFFSET -3.470700 6.669187 -0.816635 
				CHANNELS 3 Yrotation Zrotation Xrotation
				JOINT rShldr
				{
					OFFSET -3.198488 0.000000 0.000000 
					CHANNELS 3 Zrotation Yrotation Xrotation
					JOINT rForeArm
					{
						OFFSET -10.139888 0.000000 0.000000 
						CHANNELS 3 Yrotation Zrotation Xrotation
						JOINT rHand
						{
							OFFSET -8.370511 0.000000 0.000000 
							CHANNELS 3 Zrotation Yrotation Xrotation
							End Site
							{
								OFFSET -4.083176 0.000000 0.000000 
							}
						}
					}
				}
			}
		}
	}
	JOINT lThigh
	{
		OFFSET 5.308129 -1.633274 1.361059 
		CHANNELS 3 Xrotation Zrotation Yrotation
		JOINT lShin
		{
			OFFSET -2.041588 -20.007561 0.000000 
			CHANNELS 3 Xrotation Zrotation Yrotation
			JOINT lFoot
			{
				OFFSET 0.000000 -19.190928 -1.224953 
				CHANNELS 3 Xrotation Yrotation Zrotation
				End Site
				{
					OFFSET 0.000000 -2.449906 4.627600 
				}
			}
		}
	}
	JOINT rThigh
	{
		OFFSET -5.308129 -1.633274 1.361059 
		CHANNELS 3 Xrotation Zrotation Yrotation
		JOINT rShin
		{
			OFFSET 2.041588 -20.007561 0.000000 
			CHANNELS 3 Xrotation Zrotation Yrotation
			JOINT rFoot
			{
				OFFSET 0.000000 -19.190928 -1.224953 
				CHANNELS 3 Xrotation Yrotation Zrotation
				End Site
				{
					OFFSET 0.000000 -2.449906 4.627600 
				}
			}
		}
	}
}
MOTION
Frames: 18
Frame Time: 0.011111
2.836362 46.672085 -137.666595 23.948790 -1.936620 4.087722 19.381178 3.788527 -5.999694 -25.333250 2.799719 -1.927448 -20.247948 -4.908285 -0.656279 7.942115 10.409833 -3.076671 -4.964193 1.117081 0.544158 -69.587212 -36.066139 47.049232 -69.003075 9.258198 16.587389 8.524705 12.647240 -36.048229 10.412127 0.790339 -0.849798 69.172470 5.888838 16.476637 61.223419 -9.363661 12.957496 -8.534408 -12.637552 42.464699 -15.452710 0.673122 -0.147653 41.659374 -4.533613 -6.278249 -47.436680 3.909672 6.043971 -70.912407 -8.417541 -4.034249 75.779678 0.771543 9.221823 -21.142262 -4.337842 1.033731 
2.772753 46.594376 -137.289337 24.035006 -1.792226 4.130545 19.184587 3.417360 -6.123085 -25.225761 2.803327 -1.922197 -19.287527 -4.673322 -0.771427 6.797849 10.421455 -3.154942 -4.964193 1.117081 0.544158 -69.121368 -36.098797 47.535801 -69.823601 9.173264 16.994387 8.524705 12.647240 -35.013073 10.412127 0.790339 -0.849798 69.518021 5.822813 16.107735 61.479118 -9.378408 13.076358 -8.534408 -12.637552 42.445171 -15.015196 0.760848 0.138393 41.571346 -4.517306 -6.293831 -47.119579 3.623080 5.640062 -70.874931 -8.339476 -3.989490 76.314964 0.703494 9.245610 -21.468142 -3.391103 1.320084 
2.735152 46.546745 -136.856613 24.081921 -1.863284 4.184678 19.296810 3.711867 -6.353015 -25.430887 2.833355 -2.021024 -19.481583 -4.800456 -0.576220 6.869073 10.492599 -2.844602 -4.964193 1.117081 0.544158 -68.990433 -36.076038 47.461250 -70.580658 9.084227 17.366119 8.524705 12.647240 -34.163467 10.412127 0.790339 -0.849798 69.372032 5.657160 16.437986 61.905399 -9.400001 13.269786 -8.534408 -12.637552 42.337749 -14.468249 1.044298 0.249889 41.472172 -4.543254 -6.255836 -46.824001 3.483139 5.407681 -70.553726 -8.232050 -4.227237 76.840118 0.635269 9.277363 -21.881325 -2.270167 1.674446 
2.687524 46.516979 -136.404144 24.232903 -2.135185 4.329956 19.331667 4.427541 -6.756070 -26.085340 2.794428 -2.218798 -19.609032 -5.057720 -0.290998 7.390374 10.615282 -2.371516 -4.964193 1.117081 0.544158 -68.992455 -35.485992 47.075573 -71.439232 8.966304 17.799309 8.524705 12.647240 -33.450573 10.412127 0.790339 -0.849798 69.106979 4.963587 17.254457 62.470589 -9.425324 13.532849 -8.534408 -12.637552 42.327984 -14.140657 1.599963 0.477738 41.441837 -4.553016 -6.256734 -46.253586 3.408116 5.097708 -70.162148 -8.085380 -4.676197 77.346062 0.567165 9.297606 -22.161268 -1.175506 2.056522 
2.626735 46.486271 -135.939148 24.426674 -2.191811 4.625544 19.701065 4.426646 -6.696468 -26.329542 2.668245 -2.216256 -21.206732 -4.799040 -0.403212 8.661197 10.392741 -2.594470 -4.964193 1.117081 0.544158 -68.517723 -35.773697 47.636642 -72.251053 8.835148 18.208687 8.524705 12.647240 -32.600964 10.412127 0.790339 -0.849798 69.410530 5.128060 16.803661 62.896786 -9.439230 13.728427 -8.534408 -12.637552 42.367046 -13.886098 1.941175 0.755115 41.520836 -4.537197 -6.286960 -45.616966 3.194962 4.654823 -69.827827 -8.105085 -4.908957 77.920593 0.498740 9.311810 -22.347620 -0.275196 2.402569 
2.577855 46.437077 -135.432785 24.285450 -2.337209 4.764019 19.622490 4.861194 -6.993646 -25.821392 2.615517 -2.317304 -21.178604 -4.994010 -0.206758 8.248223 10.567374 -2.336122 -4.964193 1.117081 0.544158 -68.246590 -35.855251 47.257233 -73.142059 8.671793 18.657463 8.524705 12.647240 -32.317760 10.412127 0.790339 -0.849798 69.197914 5.377225 17.252769 63.270378 -9.449441 13.889300 -8.534408 -12.637552 42.474468 -13.329689 2.431848 0.981101 41.796242 -4.537761 -6.301312 -45.060020 2.814729 4.089745 -68.826302 -7.861156 -5.369000 78.338249 0.429862 9.334393 -22.377398 -0.281201 2.387672 
2.528661 46.373154 -135.010712 24.442919 -2.439115 4.459619 19.081625 4.774014 -6.703031 -26.827568 2.491396 -2.261043 -18.215118 -4.856306 -0.386932 6.592662 10.398258 -2.363544 -4.964193 1.117081 0.544158 -68.178925 -34.019238 47.433235 -74.250046 8.433410 19.232941 8.524705 12.647240 -33.157608 10.412127 0.790339 -0.849798 69.647728 3.781444 17.165194 63.856674 -9.461187 14.169145 -8.534408 -12.637552 42.513531 -13.262345 2.829972 1.287894 42.241283 -4.491454 -6.352563 -44.433224 2.252275 3.359356 -68.380280 -7.313195 -5.541932 78.785576 0.371364 9.356109 -22.033783 -0.254695 2.435842 
2.439358 46.319885 -134.560120 24.558338 -2.512162 4.500535 19.464521 4.944946 -6.748088 -26.554052 2.539899 -2.280109 -20.020477 -4.902019 -0.181350 7.565323 10.304772 -2.144196 -4.964193 1.117081 0.544158 -67.842407 -34.625492 47.240108 -74.883377 8.283729 19.564095 8.524705 12.647240 -32.161510 10.412127 0.790339 -0.849798 69.510292 4.798779 17.108139 64.132507 -9.460832 14.295416 -8.534408 -12.637552 42.708843 -13.291935 3.327524 1.545839 42.872765 -4.436039 -6.435565 -43.785603 1.288482 2.357893 -67.717789 -6.913375 -5.761992 79.243004 0.322757 9.376197 -21.577482 -0.391663 2.427591 
2.376063 46.257217 -134.040924 24.500807 -2.573817 4.483659 19.569258 5.005332 -6.637650 -27.179287 2.574989 -2.281617 -19.609522 -4.935900 -0.208635 7.611263 10.024216 -2.183095 -4.964193 1.117081 0.544158 -67.871346 -33.684296 47.153931 -75.580513 8.099874 19.942221 8.524705 12.647240 -31.487677 10.412127 0.790339 -0.849798 69.571693 4.303662 17.196451 64.538765 -9.465436 14.479873 -8.534408 -12.637552 42.933449 -13.042179 3.787635 1.892871 43.553349 -4.384435 -6.503666 -43.100513 0.565604 1.534545 -66.712631 -6.552360 -6.042013 79.651291 0.273987 9.402078 -21.074409 -0.259345 2.516636 
2.291461 46.168858 -133.567474 24.912498 -2.564052 4.397987 19.590752 5.043989 -6.557884 -27.110973 2.598256 -2.260084 -21.082836 -4.910935 -0.137635 8.286325 9.666983 -2.209417 -4.964193 1.117081 0.544158 -67.779297 -33.724464 46.701836 -75.892700 8.012938 20.107437 8.524705 12.647240 -31.565805 10.412127 0.790339 -0.849798 69.424652 5.051212 17.352259 64.772583 -9.463996 14.591331 -8.534408 -12.637552 42.952984 -13.513677 4.276695 2.577281 44.401688 -4.306460 -6.595873 -41.959087 0.160050 0.863946 -66.305962 -6.103305 -6.177867 79.942810 0.215735 9.402848 -20.676313 -0.086191 2.607232 
2.238507 46.107441 -132.980270 24.766144 -2.678987 4.421587 19.699158 5.291228 -6.388391 -26.944809 2.458990 -2.235393 -21.667850 -4.777296 -0.156514 8.467335 9.182782 -2.273277 -4.964193 1.117081 0.544158 -67.778419 -33.321243 46.433197 -76.112442 7.947821 20.221821 8.524705 12.647240 -30.052132 10.412127 0.790339 -0.849798 69.348480 5.305379 17.555449 65.071350 -9.463026 14.729030 -8.534408 -12.637552 42.992046 -13.208988 5.027598 3.524231 45.297802 -4.238369 -6.694991 -40.702480 -0.364475 0.143702 -64.637932 -5.713233 -6.564863 79.999901 0.206834 9.438287 -20.894140 0.078651 2.652854 
2.166438 46.037567 -132.406860 24.760277 -2.787396 4.587019 18.892424 5.418591 -6.554913 -27.257248 2.444029 -2.297519 -19.169891 -4.741937 -0.268253 6.982413 8.817746 -2.277934 -4.964193 1.117081 0.544158 -68.023239 -31.536287 45.841614 -76.403526 7.863234 20.384409 8.524705 12.647240 -28.733776 10.412127 0.790339 -0.849798 69.365997 4.246332 18.123631 65.485863 -9.456251 14.927011 -8.534408 -12.637552 43.060410 -13.323050 5.650813 3.836267 46.498985 -4.140913 -6.817171 -39.290871 -1.163351 -0.785294 -63.171818 -5.331827 -6.863179 79.845276 0.225513 9.404449 -22.132517 0.213009 2.602686 
2.097503 45.969257 -131.828430 24.858463 -2.900230 4.576671 18.958755 5.505325 -6.100403 -26.944752 2.237136 -2.175276 -20.411974 -4.713278 -0.329194 7.739250 8.604096 -2.512543 -4.964193 1.117081 0.544158 -67.930977 -31.507618 45.156254 -76.541656 7.818781 20.460062 8.524705 12.647240 -27.298231 10.412127 0.790339 -0.849798 69.403885 5.057354 17.929226 65.686714 -9.448912 15.017483 -8.534408 -12.637552 43.177589 -13.759685 6.220819 3.980259 47.945129 -4.001311 -6.989336 -37.679741 -2.260863 -1.907059 -61.811157 -4.823531 -7.085759 79.476044 0.283935 9.389139 -23.738014 0.261571 2.482590 
2.014154 45.897190 -131.240601 24.965164 -3.065102 4.606174 18.683186 5.814602 -6.079056 -26.759178 2.282262 -2.189379 -20.772467 -5.010950 -0.134515 7.961113 8.550583 -2.299690 -4.964193 1.117081 0.544158 -68.342598 -30.800831 43.746906 -76.593231 7.806120 20.496183 8.524705 12.647240 -25.755260 10.412127 0.790339 -0.849798 68.945824 5.361151 18.632864 65.888893 -9.443727 15.107262 -8.534408 -12.637552 43.626808 -14.528814 6.941954 4.327657 49.930710 -3.802525 -7.206932 -35.855682 -3.228040 -2.871682 -60.340145 -4.257781 -7.261876 78.901962 0.361699 9.375220 -25.530788 0.500514 2.411135 
1.906679 45.847370 -130.619553 25.053680 -3.367501 4.862476 18.284107 6.079793 -6.003816 -26.436874 2.294130 -2.186268 -21.055302 -4.965909 -0.120026 8.185265 8.196520 -2.298038 -4.964193 1.117081 0.544158 -68.549858 -30.103640 42.840790 -76.442245 7.849872 20.408993 8.524705 12.647240 -24.485729 10.412127 0.790339 -0.849798 68.749176 5.792000 18.458685 66.335876 -9.431334 15.318586 -8.534408 -12.637552 41.742050 -15.570154 7.916334 4.432577 52.277447 -3.576192 -7.427398 -33.559986 -4.126381 -3.702860 -58.617966 -3.651992 -7.550097 78.202034 0.449262 9.330971 -27.559975 0.511169 2.217381 
1.876285 45.691010 -130.175247 26.414007 -3.709085 2.988548 17.328117 6.282234 -4.262844 -26.203035 1.987796 -1.725238 -22.579048 -5.020629 0.023775 9.275845 8.000065 -2.226419 -4.964193 1.117081 0.544158 -68.655037 -29.887890 41.915649 -76.092911 7.954189 20.209543 8.524705 12.647240 -23.997450 10.412127 0.790339 -0.849798 68.376984 6.965357 18.643717 66.463531 -9.427195 15.380709 -8.534408 -12.637552 40.618999 -18.274548 9.058480 5.679200 55.169762 -3.283904 -7.700364 -30.458965 -4.469081 -4.120162 -59.094769 -1.816061 -6.974383 77.540825 0.537946 9.297721 -28.791058 0.609444 2.130171 
1.814557 45.593254 -129.618118 26.508320 -4.141459 2.725465 17.180813 6.770346 -3.652324 -26.623159 1.638918 -1.607332 -21.998791 -4.946099 -0.093582 9.133859 7.840680 -2.342860 -4.964193 1.117081 0.544158 -68.796463 -28.486675 40.987019 -75.913734 8.008499 20.119333 8.524705 12.647240 -23.636120 10.412127 0.790339 -0.849798 68.332047 6.996920 19.340475 66.687012 -9.419664 15.492300 -8.534408 -12.637552 40.882668 -19.862141 10.194607 5.967628 58.155529 -2.954242 -7.987198 -27.135656 -4.574446 -4.331876 -57.652225 -0.888483 -7.076134 76.908752 0.625415 9.264908 -30.071711 -0.435150 1.383928 
1.750008 45.539356 -129.037186 26.903639 -4.612941 2.577195 16.208672 7.267956 -3.204674 -25.773685 1.479167 -1.508940 -21.381639 -4.919405 -0.205443 8.106589 7.582153 -2.536440 -4.964193 1.117081 0.544158 -69.034424 -27.822176 39.734844 -75.741486 8.055228 20.029688 8.524705 12.647240 -23.313856 10.412127 0.790339 -0.849798 67.955276 7.663303 20.205942 66.972916 -9.405440 15.631888 -8.534408 -12.637552 42.191265 -22.081850 11.352383 6.012334 61.411850 -2.591861 -8.251737 -23.840178 -4.656951 -4.419156 -56.732929 -0.068129 -7.182954 76.373177 0.703423 9.259063 -31.342764 -0.793310 0.980486 
